<?xml version="1.0" encoding="UTF-8" standalone="no"?>
<!-- Created with Inkscape (http://www.inkscape.org/) -->
<svg
   xmlns:svg="http://www.w3.org/2000/svg"
   xmlns="http://www.w3.org/2000/svg"
   version="1.0"
   width="256"
   height="256"
   id="svg2"
   style="display:inline">
  <defs
     id="defs4" />
  <g
     id="layer2"
     style="display:inline">
    <path
       d="M 128,3.5 C 59.27336,3.5 3.5,59.27429 3.5,128 C 3.5,196.72571 59.27336,252.5 128,252.5 C 196.72664,252.5 252.5,196.72571 252.5,128 C 252.5,59.27429 196.72664,3.5 128,3.5 z M 128,9.25 C 193.5453,9.25 246.73438,62.45004 246.73438,128 C 246.73437,193.54996 193.5453,246.75 128,246.75 C 62.4547,246.75 9.26562,193.54996 9.26562,128 C 9.26562,62.45004 62.4547,9.25 128,9.25 z"
       id="path2455"
       style="opacity:1;fill:#464442;fill-opacity:1;display:inline" />
    <path
       d="M 127.9375,20.92188 C 71.73434,20.92188 25.60076,64.29696 21.20312,119.375 L 78.35938,142.82812 C 83.24375,139.55142 89.11603,137.64062 95.4375,137.64062 C 95.9624,137.64062 96.48153,137.66145 97,137.6875 C 97.00518,137.68776 97.01045,137.68723 97.01562,137.6875 L 122.625,101 C 122.62079,100.79135 122.61043,100.5844 122.60938,100.375 C 122.49585,77.93072 140.61851,59.70312 163.0625,59.70312 C 185.50649,59.70312 203.82398,77.93072 203.9375,100.375 C 204.05102,122.81928 185.92836,141.03125 163.48438,141.03125 C 163.21218,141.03125 162.94283,141.02095 162.67188,141.01562 L 126.125,166.95312 C 126.1466,167.42552 126.17188,167.89729 126.17188,168.375 C 126.17188,185.33969 112.40219,199.10938 95.4375,199.10938 C 80.50576,199.10938 68.06501,188.43659 65.29688,174.3125 L 25.0625,157.75 C 37.96668,202.39353 79.15532,235.07813 127.9375,235.07812 C 187.04469,235.07812 235.01563,187.10712 235.01562,128 C 235.01562,68.89288 187.04469,20.92188 127.9375,20.92188 z"
       id="path3255"
       style="opacity:1;fill:#464442;fill-opacity:1" />
    <path
       d="M 163.21875,73.85938 C 148.56732,73.85938 136.67187,85.75482 136.67188,100.40625 C 136.67188,115.05768 148.56731,126.95313 163.21875,126.95312 C 177.87018,126.95312 189.76563,115.05768 189.76562,100.40625 C 189.76562,85.75482 177.87018,73.85938 163.21875,73.85938 z M 163.21875,79.875 C 174.55371,79.875 183.75,89.07128 183.75,100.40625 C 183.75,111.74122 174.55372,120.9375 163.21875,120.9375 C 151.88378,120.9375 142.6875,111.74122 142.6875,100.40625 C 142.6875,89.07128 151.88378,79.875 163.21875,79.875 z"
       id="path3267"
       style="opacity:1;fill:#464442;fill-opacity:1;stroke:#464442;stroke-width:0.51510531;stroke-opacity:1" />
    <path
       d="M 95.45312,145.84375 C 92.99296,145.84375 90.62318,146.23111 88.40625,146.95312 L 103.46875,153.39062 C 103.46875,153.39062 116.3531,161.10402 109.90625,175.25 C 103.31834,189.70549 87.92188,183.5625 87.92188,183.5625 L 75.39062,178.29688 C 79.12693,185.5063 86.70731,190.45312 95.45312,190.45312 C 107.89517,190.45312 118,180.45228 118,168.14062 C 118,155.82897 107.89516,145.84375 95.45312,145.84375 z"
       id="path3263"
       style="opacity:1;fill:#464442;fill-opacity:1;stroke:none;stroke-width:1.09070504;stroke-opacity:1;display:inline" />
  </g>
</svg>
